<svg height="615" viewBox="0 0 923 615" width="923" xmlns="http://www.w3.org/2000/svg" xmlns:xlink="http://www.w3.org/1999/xlink"><defs><path id="a" d="m0 0h923v615h-923z"/><radialGradient id="b" cx="32.745226%" cy="50%" gradientTransform="matrix(.01365923 .99949338 -.42894958 .03182732 .537454 .1568)" r="111.293489%"><stop offset="0" stop-color="#fff" stop-opacity=".13"/><stop offset="1" stop-opacity="0"/></radialGradient><mask id="c" fill="#fff"><use fill="#fff" fill-rule="evenodd" xlink:href="#a"/></mask><mask id="d" fill="#fff"><path d="m0 638h1087v-638h-1087z" fill="#fff" fill-rule="evenodd"/></mask></defs><g fill="none" fill-rule="evenodd"><use fill="#212121" xlink:href="#a"/><path d="m0 0h1440v618h-1440z" fill="url(#b)" fill-opacity=".87" mask="url(#c)"/><g mask="url(#c)" opacity=".05"><g fill-rule="evenodd" transform="translate(-49 -10)"><g fill="#a7a9ac"><path d="m286.966989 638h-261.966989v-2.173342h261.116114l48.490074-44.279659h130.375102l17.213026 15.719779h58.97474l29.723846-27.143949h316.148864l18.060625 16.492402h98.479829l22.57496-20.615231h50.84282v2.173342h-49.99194l-22.57496 20.61523h-100.181585l-18.060625-16.492402h-314.447113l-29.724937 27.143949h-60.674307l-17.214118-15.719779h-128.673351z"/><path d="m280.782924 626h-182.6485831l-68.1343409-62.344805 1.4770252-1.604226 67.5061682 61.770856h180.9497856l52.2738-47.831627h138.643721l16.498546 15.096929h46.331833l27.329335-25.007624h333.992317l19.85135 18.163799h85.138702l25.402207-23.243302h51.60521v2.178175h-50.75417l-25.40221 23.243302h-86.840777l-19.851349-18.163799h-332.28915l-27.33152 25.007624h-48.032815l-16.498546-15.096929h-136.941646z"/><path d="m997.073609 573h-75.55936l-19.147415-17.727743h-226.990558l-.313569-.290944-27.843237-25.777192h-124.21947v-2.204121h125.070588l.312477.289842 27.844329 25.778294h226.99165l19.146322 17.727743h73.857125l26.909079-24.914279h53.86843v2.204121h-53.01731z"/><path d="m250 614h-144.848047l-61.151953-56.386209 1.4755134-1.613791 60.5255146 55.807349h143.998972z"/><path d="m290.660618 600h-26.173761l-19.862063-18.287455h-60.339351l-19.390927 17.854337h-54.696645l-63.197871-58.185862 1.4779036-1.615147 62.5704174 57.608005h52.994651l19.393113-17.854336h62.03916l19.863156 18.287455h24.471767l41.466565-38.177996h102.374342l17.429862-16.048399v-36.077098l24.441159-22.503504 1.477904 1.615147-23.732815 21.851086v36.078194l-18.76566 17.277577h-102.373248z"/><path d="m993.94509 560h-66.287915l-19.932118-18.370323h-228.27664l-.313333-.289417-26.199868-24.147705h-147.887654l-36.571513 33.707245-1.476049-1.61372 37.198179-34.28608h149.588604l.312241.289417 26.199868 24.147705h228.277731l19.931027 18.370323h64.586966l25.573204-23.569967h55.33218v2.192555h-54.48171z"/><path d="m1074 524h-265.417766l-.312519-.291058-27.542054-25.503957h-41.304886l-18.538026 17.168012h-45.551203l-16.420331-15.207781h-158.888313l-20.547542 19.02902-1.47736-1.623972 21.174764-19.610032h160.589681l16.420331 15.20778h43.84765l18.538026-17.168012h43.009532l.312519.289956 27.542054 25.505059h264.565443z"/><path d="m1074 511h-254.024655l-.312394-.291266-29.593356-27.435278h-55.783142l-21.160893 19.618535h-31.612996l-15.381598-14.258798h-122.643176l-26.347076-24.426632h-126.754547l-24.29576 22.524576h-64.501784l-23.811876 22.076645h-74.866504l-27.970215-25.93261h-146.940028v-2.206561h147.789828l27.971308 25.932609h73.164719l23.811876-22.076644h64.501784l24.295759-22.524576h128.456332l26.345984 24.426632h122.644268l15.381598 14.258798h29.911212l21.160893-19.618535h57.484926l.312395.291266 29.594448 27.435278h253.17267z"/><path d="m270.535988 493h-62.958775l-26.161975-24.220156h-150.415238v-2.204438h151.266505l26.160882 24.220156h61.258427l21.456514-19.864187h65.247032l25.848351-23.931375h141.134354l28.101639 26.016773h116.526296v2.204438h-117.377563l-.312532-.290986-27.789107-25.725787h-139.432913l-25.848351 23.931375h-65.244847z"/><path d="m828 496h246v-2h-246z" mask="url(#d)"/><path d="m1074 483h-237.393136l-.312294-.286835-30.912811-28.231523h-79.246427l-20.311169 19.48414h-18.188439l-18.899291-15.222901-112.006799.545422-26.614937-26.883181h-150.043425l-28.068308 25.634796h-63.709218l-19.234516 17.566474h-56.090755l-27.657739-25.258868v-26.023762l-18.310736-16.723353 1.476302-1.600409 19.018313 17.368731v26.023762l26.323389 24.040906h54.391697l19.233424-17.566474h63.709218l28.0694-25.634796h151.806907l26.611661 26.878835 111.864848-.545421 18.904751 15.227247h16.534149l20.310078-19.48414h80.978243l.312294.286835 30.912811 28.231522h236.542515z" mask="url(#d)"/><path d="m1074 449h-217.973218l-23.643467-21.648597h-56.90708l-.312406-.28766-26.689974-24.435849h-39.198236l-32.194221 29.477527h-44.545189l-.313498-.28766-27.109429-24.819395h-266.807983l-17.277373-15.819123h-180.765205l-35.998804 32.959956h-64.263917v-2.179243h63.414085l35.997712-32.959956h182.465961l17.278465 15.819123h266.807984l.313498.28766 27.109429 24.819395h42.843339l32.193129-29.477526h40.90227l.312406.28766 26.688882 24.435848h56.907079l.312406.28766 23.331062 21.360937h217.122293z" mask="url(#d)"/><path d="m1074 462h-225.399776l-.312355-.287255-23.086925-21.108925h-57.862024l-.312354-.287256-25.307263-23.140386h-28.45702l-29.325277 26.817039h-55.044281l-.312354-.286168-28.288829-25.868225h-227.876769l-32.975237 30.154208h-119.439536v-2.176178h118.589845l32.975237-30.154208h229.577244l.312354.287256 28.289921 25.867137h53.340529l29.32637-26.817039h30.158586l.312355.286167 25.307263 23.141475h57.863116l.312354.287256 23.085833 21.108924h224.548993z" mask="url(#d)"/><path d="m96.8717208 411h-56.8717208v-2.189781h56.0217967l33.4911613-30.810219h349.487042v2.189781h-348.636026z" mask="url(#d)"/><path d="m1074 436h-211.034177l-.312252-.290224-25.572986-23.633451h-57.607181l-.312252-.289124-32.016727-29.588536h-104.843455l-14.11793 13.046879h-202.18304v-2.198665h201.332536l14.116838-13.046879h106.545555l.312251.289124 32.017819 29.588536h57.60609l.312252.290224 25.572986 23.633451h210.183673z" mask="url(#d)"/><path d="m1064.52308 420-86.236064-79.328095h-122.672989l-19.003351-17.482245h-157.309643l-62.884968 59.699983h-81.371615l-17.612729-17.651943h-457.431721v-2.18966h458.336226l17.612729 17.651943h79.596469l62.884968-59.699983h159.032355l19.002258 17.482245h122.672989l.312426.289035 86.54958 79.616035z" mask="url(#d)"/><path d="m1067.52071 404-83.797506-76.715783h-121.67691l-.312926-.28811-27.733368-25.388585 1.479288-1.607522 27.419347 25.101567h121.67691l.314021.288109 84.110434 77.002802z" mask="url(#d)"/><path d="m1074 424h-202.243956l-.313709-.290118-27.839218-25.690816v-26.928212l-27.603117-25.472128 1.476728-1.618726 28.312514 26.125992v26.927114l26.818298 24.749031h201.39246z" mask="url(#d)"/><path d="m914 407h174v-2h-174z" mask="url(#d)"/><path d="m608.443075 372h-66.428549l-19.362386-19.297456h-467.65214v-2.177305h468.556628l19.362386 19.297456h64.619573l27.916792-27.822695 1.544621 1.539355z" mask="url(#d)"/><path d="m341 521h-146.341819l-24.647941-22.798327h-142.01024v-2.201673h142.860169l24.649033 22.798327h145.490798z" mask="url(#d)"/><path d="m382.507375 533h-196.267139l-24.051458-22.071335h-131.188778v-2.181501h132.038641l24.051458 22.071335h194.568504l24.86641-22.818499 1.474987 1.606675z" mask="url(#d)"/><path d="m272.523457 564-23.155432-20.858074h-221.368025v-2.141926h222.218156l23.781844 21.422472z" mask="url(#d)"/><path d="m554.973469 624h-167.973469v-2.198527h167.122835l30.086674-27.801473h197.271751l19.110329 17.658569h273.408411v2.198527h-274.259045l-19.110329-17.658569h-195.570483z" mask="url(#d)"/><path d="m360 335h242v-2h-242z" mask="url(#d)"/><path d="m791 220h87v-2h-87z" mask="url(#d)"/><path d="m791 220h145v-2h-145z" mask="url(#d)"/><path d="m50.8428692 62h-50.8428692v-2.1733796h49.9930851l22.5749854-20.6155923h100.1805935l18.060644 16.4937779h314.448532l29.723876-27.1444246h60.675462l17.213044 15.718968h128.673484l48.490125-44.2793494h261.966169v2.17337961h-261.115292l-48.490125 44.27934939h-130.375238l-17.214136-15.718968h-58.973709l-29.723876 27.1444246h-316.149192l-18.060644-16.4937778h-98.4799334z" mask="url(#d)"/><path d="m51.6052057 77h-51.6052057v-2.1782112h50.7541683l25.402211-23.2436916h86.8407777l19.851349 18.1651922h332.28915l27.330428-25.0091317h48.032815l16.499638 15.0982708h136.940554l52.274892-47.8324285h182.649676l.31354.2864348 67.820801 62.0583258-1.47703 1.6053416-67.508348-61.771891h-180.947601l-52.2738 47.8324285h-138.643721l-16.499639-15.0982708h-46.33074l-27.330428 25.0091317h-333.991224l-19.85135-18.1651922h-85.1387023z" mask="url(#d)"/><path d="m523 112h-94.217546l-28.147088-26.0687606h-226.912208l-19.140807-17.7270658h-73.8316316l-26.8997953 24.9137736h-53.8509241v-2.2041735h53.0001002l26.9008876-24.9137737h75.5310952l19.140806 17.7270658h226.912209l28.147087 26.0687602h93.367815z" mask="url(#d)"/><path d="m1031.52449 82-60.525518-55.8073492h-143.998972v-2.1926508h144.849139l.312127.2883336 60.838734 56.0956827z" mask="url(#d)"/><path d="m601.4779 153-1.4779-1.616228 23.732755-21.850877v-36.0767546l18.765612-17.2785088h102.374081l41.46646-38.1776316h26.174788l19.863105 18.2872807h60.337012l19.391971-17.8541667h54.697599l.312633.2883772 62.883984 57.8969299-1.4779 1.616228-62.570258-57.6085526h-52.994517l-19.39197 17.8541667h-62.041188l-19.863106-18.2872807h-24.469518l-41.467554 38.1776315h-102.372988l-17.432004 16.0493421v36.0767549z" mask="url(#d)"/><path d="m572.803938 124h-149.588873l-26.512157-24.4371224h-228.279234l-19.931063-18.3703225h-64.5881728l-25.5721565 23.5699669h-55.3322817v-2.192555h54.4818053l25.5732482-23.569967h66.2869425l19.932155 18.3703225h228.278142l26.513248 24.4371225h147.88792l36.571579-33.7072452 1.47496 1.615913z" mask="url(#d)"/><path d="m338.194772 143h-42.978476l-27.835168-25.795015h-264.381128v-2.204985h265.231766l27.834075 25.795015h41.279386l18.525111-17.166909h45.517285l16.409984 15.206678h159.202393v2.204984h-160.05303l-16.409984-15.206677h-43.817102z" mask="url(#d)"/><path d="m687.465103 176h-128.45729l-26.345956-24.426632h-122.64414l-15.38049-14.259901h-29.912272l-21.160871 19.619638h-57.483775l-29.906811-27.726544h-253.173498v-2.206561h254.023297l29.906811 27.726544h55.783084l21.160871-19.619638h31.612963l15.38049 14.259901h122.645232l26.347049 24.426632h126.754415l24.294642-22.524576h64.501716l23.810759-22.076645h74.867518l27.971279 25.933714h146.939874v2.206561h-147.790765l-27.971279-25.933713h-73.164643l-23.811851 22.076644h-64.501717z" mask="url(#d)"/><path d="m694.941288 190h-141.063521l-28.087319-25.742704h-116.891782l-16.545916-15.16599h-24.747335l-21.056751 19.297212h-69.323774l-28.593012-26.207303h-245.631878v-2.181215h246.480526l28.595197 26.207303h67.6232l21.055659-19.297213h26.446816l16.548101 15.165991h116.89069l28.088411 25.742704h139.361855l25.835177-23.678184h65.212689l21.446671-19.656022h62.928874l26.146458 23.965013h150.339676v2.181215h-151.190509l-26.146458-23.965013h-61.227208l-21.446671 19.656023h-65.212689z" mask="url(#d)"/><path d="m698.126173 204h-151.885111l-.320098-.3252-26.302703-26.670785-111.961287.546729-18.971027-17.45605h-16.411331l-20.32134 21.73167h-81.050476l-31.242927-28.643812h-236.659873v-2.182552h237.51092l31.241834 28.643812h79.252243l20.32134-21.73167h18.211749l18.96775 17.451685 112.023558-.546729 26.627172 27.00035h150.11856l28.083457-25.747565h63.740028l19.244148-17.644841h56.119936l27.004079 24.758869h93.533226v2.182552h-94.385365l-27.002987-24.758869h-54.417842l-19.243056 17.644841h-63.741121z" mask="url(#d)"/><path d="m937.589296 249h-182.468147l-17.27628-15.819123h-266.809076l-27.421834-25.107055h-42.84334l-32.195313 29.477526h-40.900086l-27.00238-24.722419h-56.905987l-23.64456-21.649686h-217.122293v-2.179243h217.973218l23.64456 21.649687h56.905987l27.00238 24.722419h39.199329l32.194221-29.477527h44.545188l27.420743 25.107055h266.810168l17.27628 15.819123h180.766297l35.997712-32.959956h64.263917v2.179243h-63.412992z" mask="url(#d)"/><path d="m364.587871 224h-30.157533l-25.619651-23.426012h-57.862097l-23.400402-21.397861h-224.548188v-2.176127h225.400064l23.39931 21.397861h57.862098l25.618558 23.426012h28.458148l29.325315-26.816419h55.044351l28.60122 26.154876h227.87706l32.974187-30.154598h119.439689v2.176128h-118.588904l-32.974187 30.154597h-229.57863l-28.60122-26.154875h-53.342781z" mask="url(#d)"/><path d="m947.48682 260h-349.48682v-2.189781h348.635801l33.492337-30.810219h56.871862v2.189781h-56.020844z" mask="url(#d)"/><path d="m435.549534 258h-106.544463l-32.328979-29.878173h-57.606089l-25.885238-23.923205h-210.184765v-2.198622h211.034177l25.885238 23.923205h57.607181l32.327888 29.878173h104.845638l14.116838-13.047722h202.18304v2.198622h-201.331444z" mask="url(#d)"/><path d="m547.079539 320h-121.362623l-22.971009-22.989985h-96.141933l-20.85244 20.87076h-47.17011l-19.005931-17.460098h-122.6966986l-.3146714-.287593-86.564123-79.521248 1.4772072-1.611836 86.2516369 79.233654h122.6966979l19.005932 17.460098h45.414287l20.853533-20.87076h97.951293l22.971009 22.989985h119.553262l32.638413-32.665375h96.186729v2.187023h-95.280957z" mask="url(#d)"/><path d="m712.475854 296-1.475854-1.606633 23.250159-21.309146h214.33505l36.097294-33.084221h52.317497v2.179964h-51.466043l-36.098385 33.08422h-214.333959z" mask="url(#d)"/><path d="m241.519618 338-27.419347-25.101567h-121.6769102l-.3140205-.288109-84.1093403-77.002802 1.47928801-1.607522 83.79641399 76.715783h121.67691l28.047388 25.676695z" mask="url(#d)"/><path d="m259.521092 295-28.310208-26.125252v-26.928583l-26.819277-24.748272h-201.391607v-2.197893h202.242006l28.154994 25.980191v26.928583l27.603 25.472478z" mask="url(#d)"/><path d="m871 290h172v-2h-172z" mask="url(#d)"/><path d="m1049 143h-142.860265l-24.64886-22.79823h-145.490875v-2.20177h146.34189l24.648861 22.79823h142.009249z" mask="url(#d)"/><path d="m670.474987 130-1.474987-1.607766 25.491534-23.392234h196.26823l24.051458 22.071335h131.188778v2.181501h-132.038641l-24.051458-22.071335h-194.568504z" mask="url(#d)"/><path d="m1049 97h-222.219352l-23.780648-21.4214006 1.475446-1.5785994 23.155329 20.8580741h221.369225z" mask="url(#d)"/><path d="m492.955874 44h-197.33771l-19.116824-17.6574695h-273.50134v-2.198527h274.351171l19.116824 17.6574695h195.638048l30.095808-27.801473h219.798149v2.198527h-218.947225z" mask="url(#d)"/><path d="m3 166h217v-2h-217z" mask="url(#d)"/><path d="m0 231h167v-2h-167z" mask="url(#d)"/><path d="m3 248h196v-2h-196z" mask="url(#d)"/><path d="m526 303h-57.975776l-28.718925-28.80663h-144.305299v-2.19337h145.21059l28.718925 28.80663h57.070485z" mask="url(#d)"/></g><path d="m829 301c0 3.314119 2.685636 6 5.999453 6 3.313816 0 6.000547-2.685881 6.000547-6s-2.686731-6-6.000547-6c-3.313817 0-5.999453 2.685881-5.999453 6" fill="#bcbec0" mask="url(#d)"/><path d="m811 345c0 3.314119 2.686486 6 5.998906 6 3.314608 0 6.001094-2.685881 6.001094-6 0-3.313024-2.686486-6-6.001094-6-3.31242 0-5.998906 2.686976-5.998906 6" fill="#bcbec0" mask="url(#d)"/><path d="m908 406c0 3.313024 2.686731 6 5.999453 6 3.314911 0 6.000547-2.686976 6.000547-6 0-3.314119-2.685636-6-6.000547-6-3.312722 0-5.999453 2.685881-5.999453 6" fill="#bcbec0" mask="url(#d)"/><path d="m663 474c0 3.314119 2.685636 6 5.999453 6 3.313816 0 6.000547-2.685881 6.000547-6s-2.686731-6-6.000547-6c-3.313817 0-5.999453 2.685881-5.999453 6" fill="#bcbec0" mask="url(#d)"/><path d="m822 495c0 3.314119 2.686731 6 5.999453 6 3.314911 0 6.000547-2.685881 6.000547-6 0-3.313024-2.685636-6-6.000547-6-3.312722 0-5.999453 2.686976-5.999453 6" fill="#bcbec0" mask="url(#d)"/><path d="m473 379c0 3.314119 2.686731 6 5.999453 6 3.313816 0 6.000547-2.685881 6.000547-6s-2.686731-6-6.000547-6c-3.312722 0-5.999453 2.685881-5.999453 6" fill="#bcbec0" mask="url(#d)"/><path d="m420 395c0 3.313024 2.686731 6 5.999453 6 3.313816 0 6.000547-2.686976 6.000547-6 0-3.314119-2.686731-6-6.000547-6-3.312722 0-5.999453 2.685881-5.999453 6" fill="#bcbec0" mask="url(#d)"/><path d="m630 342c0 3.314119 2.685636 6 5.999453 6 3.314911 0 6.000547-2.685881 6.000547-6 0-3.313024-2.685636-6-6.000547-6-3.313817 0-5.999453 2.686976-5.999453 6" fill="#bcbec0" mask="url(#d)"/><path d="m596 334c0 3.313024 2.686731 6 5.999453 6 3.314911 0 6.000547-2.686976 6.000547-6 0-3.314119-2.685636-6-6.000547-6-3.312722 0-5.999453 2.685881-5.999453 6" fill="#bcbec0" mask="url(#d)"/><path d="m355 334c0 3.313024 2.686731 6 6.000547 6 3.313817 0 5.999453-2.686976 5.999453-6 0-3.314119-2.685636-6-5.999453-6-3.313816 0-6.000547 2.685881-6.000547 6" fill="#bcbec0" mask="url(#d)"/><path d="m669 286c0 3.314119 2.685636 6 5.999453 6 3.313816 0 6.000547-2.685881 6.000547-6s-2.686731-6-6.000547-6c-3.313817 0-5.999453 2.685881-5.999453 6" fill="#bcbec0" mask="url(#d)"/><path d="m520 301.000547c0 3.313817 2.686731 5.999453 6.000547 5.999453 3.313817 0 5.999453-2.685636 5.999453-5.999453 0-3.313816-2.685636-6.000547-5.999453-6.000547-3.313816 0-6.000547 2.686731-6.000547 6.000547" fill="#bcbec0" mask="url(#d)"/><path d="m289 272.999453c0 3.313816 2.686731 6.000547 5.999453 6.000547 3.313816 0 6.000547-2.686731 6.000547-6.000547 0-3.313817-2.686731-5.999453-6.000547-5.999453-3.312722 0-5.999453 2.685636-5.999453 5.999453" fill="#bcbec0" mask="url(#d)"/><path d="m165 410c0 3.313024 2.686731 6 5.999453 6 3.313816 0 6.000547-2.686976 6.000547-6 0-3.314119-2.686731-6-6.000547-6-3.312722 0-5.999453 2.685881-5.999453 6" fill="#bcbec0" mask="url(#d)"/><path d="m214 447c0 3.314119 2.686731 6 5.999453 6 3.313816 0 6.000547-2.685881 6.000547-6 0-3.313024-2.686731-6-6.000547-6-3.312722 0-5.999453 2.686976-5.999453 6" fill="#bcbec0" mask="url(#d)"/><path d="m335 520c0 3.314119 2.686731 6 5.999453 6 3.313816 0 6.000547-2.685881 6.000547-6 0-3.313024-2.686731-6-6.000547-6-3.312722 0-5.999453 2.686976-5.999453 6" fill="#bcbec0" mask="url(#d)"/><path d="m267 564c0 3.313024 2.686731 6 5.999453 6 3.313816 0 6.000547-2.686976 6.000547-6 0-3.314119-2.686731-6-6.000547-6-3.312722 0-5.999453 2.685881-5.999453 6" fill="#bcbec0" mask="url(#d)"/><path d="m244 613c0 3.313024 2.686731 6 5.999453 6 3.314911 0 6.000547-2.686976 6.000547-6 0-3.314119-2.685636-6-6.000547-6-3.312722 0-5.999453 2.685881-5.999453 6" fill="#bcbec0" mask="url(#d)"/><path d="m381 623c0 3.314119 2.686731 6 5.999453 6 3.314911 0 6.000547-2.685881 6.000547-6s-2.685636-6-6.000547-6c-3.312722 0-5.999453 2.685881-5.999453 6" fill="#bcbec0" mask="url(#d)"/><path d="m402 508c0 3.313024 2.686731 6 5.999453 6 3.313816 0 6.000547-2.686976 6.000547-6 0-3.314119-2.686731-6-6.000547-6-3.312722 0-5.999453 2.685881-5.999453 6" fill="#bcbec0" mask="url(#d)"/><path d="m470 486c0 3.313024 2.686731 6 6.000547 6 3.313817 0 5.999453-2.686976 5.999453-6 0-3.314119-2.685636-6-5.999453-6-3.313816 0-6.000547 2.685881-6.000547 6" fill="#bcbec0" mask="url(#d)"/><path d="m473 518c0 3.314119 2.686731 6 5.999453 6 3.313816 0 6.000547-2.685881 6.000547-6 0-3.313024-2.686731-6-6.000547-6-3.312722 0-5.999453 2.686976-5.999453 6" fill="#bcbec0" mask="url(#d)"/><path d="m461 550c0 3.314119 2.686731 6 5.999453 6 3.313816 0 6.000547-2.685881 6.000547-6 0-3.313024-2.686731-6-6.000547-6-3.312722 0-5.999453 2.686976-5.999453 6" fill="#bcbec0" mask="url(#d)"/><path d="m517 528.000547c0 3.312722 2.686731 5.999453 5.999453 5.999453 3.313816 0 6.000547-2.686731 6.000547-5.999453 0-3.313816-2.686731-6.000547-6.000547-6.000547-3.312722 0-5.999453 2.686731-5.999453 6.000547" fill="#bcbec0" mask="url(#d)"/><path d="m584 629c0 3.314119 2.685636 6 5.999453 6 3.313816 0 6.000547-2.685881 6.000547-6s-2.686731-6-6.000547-6c-3.313817 0-5.999453 2.685881-5.999453 6" fill="#bcbec0" mask="url(#d)"/><path d="m248 336.999453c0-3.312722-2.686731-5.999453-5.999453-5.999453-3.313816 0-6.000547 2.686731-6.000547 5.999453 0 3.313816 2.686731 6.000547 6.000547 6.000547 3.312722 0 5.999453-2.686731 5.999453-6.000547" fill="#bcbec0" mask="url(#d)"/><path d="m266 294.000547c0-3.313816-2.686731-6.000547-5.999453-6.000547-3.313816 0-6.000547 2.686731-6.000547 6.000547 0 3.313817 2.686731 5.999453 6.000547 5.999453 3.312722 0 5.999453-2.685636 5.999453-5.999453" fill="#bcbec0" mask="url(#d)"/><path d="m205 247c0-3.314119-2.686731-6-5.999453-6-3.313816 0-6.000547 2.685881-6.000547 6s2.686731 6 6.000547 6c3.312722 0 5.999453-2.685881 5.999453-6" fill="#bcbec0" mask="url(#d)"/><path d="m173 229.999453c0-3.313817-2.686731-5.999453-5.999453-5.999453-3.314911 0-6.000547 2.685636-6.000547 5.999453 0 3.313816 2.685636 6.000547 6.000547 6.000547 3.312722 0 5.999453-2.686731 5.999453-6.000547" fill="#bcbec0" mask="url(#d)"/><path d="m604 259c0-3.314119-2.686486-6-5.998906-6-3.314608 0-6.001094 2.685881-6.001094 6s2.686486 6 6.001094 6c3.31242 0 5.998906-2.685881 5.998906-6" fill="#bcbec0" mask="url(#d)"/><path d="m657 244c0-3.314119-2.685636-6-5.999453-6-3.313816 0-6.000547 2.685881-6.000547 6s2.686731 6 6.000547 6c3.313817 0 5.999453-2.685881 5.999453-6" fill="#bcbec0" mask="url(#d)"/><path d="m718 294.999453c0-3.313817-2.685636-5.999453-5.999453-5.999453-3.314911 0-6.000547 2.685636-6.000547 5.999453 0 3.313816 2.685636 6.000547 6.000547 6.000547 3.313817 0 5.999453-2.686731 5.999453-6.000547" fill="#bcbec0" mask="url(#d)"/><path d="m877 288.999453c0-3.313817-2.686486-5.999453-5.998906-5.999453-3.314608 0-6.001094 2.685636-6.001094 5.999453 0 3.313816 2.686486 6.000547 6.001094 6.000547 3.31242 0 5.998906-2.686731 5.998906-6.000547" fill="#bcbec0" mask="url(#d)"/><path d="m942 219.000547c0-3.313816-2.686486-6.000547-6-6.000547s-6 2.686731-6 6.000547c0 3.313817 2.686486 5.999453 6 5.999453s6-2.685636 6-5.999453" fill="#bcbec0" mask="url(#d)"/><path d="m797 219.000547c0-3.313816-2.685636-6.000547-5.999453-6.000547-3.314911 0-6.000547 2.686731-6.000547 6.000547 0 3.313817 2.685636 5.999453 6.000547 5.999453 3.313817 0 5.999453-2.685636 5.999453-5.999453" fill="#bcbec0" mask="url(#d)"/><path d="m863 192.000547c0-3.313816-2.685636-6.000547-5.999453-6.000547-3.314911 0-6.000547 2.686731-6.000547 6.000547 0 3.313817 2.685636 5.999453 6.000547 5.999453 3.313817 0 5.999453-2.685636 5.999453-5.999453" fill="#bcbec0" mask="url(#d)"/><path d="m742 119c0-3.314119-2.685636-6-5.999453-6-3.314911 0-6.000547 2.685881-6.000547 6s2.685636 6 6.000547 6c3.313817 0 5.999453-2.685881 5.999453-6" fill="#bcbec0" mask="url(#d)"/><path d="m810 75c0-3.3141189-2.686731-6-5.999453-6-3.314911 0-6.000547 2.6858811-6.000547 6s2.685636 6 6.000547 6c3.312722 0 5.999453-2.6858811 5.999453-6" fill="#bcbec0" mask="url(#d)"/><path d="m833 25.0005472c0-3.3138167-2.685636-6.0005472-5.999453-6.0005472-3.314911 0-6.000547 2.6867305-6.000547 6.0005472s2.685636 5.9994528 6.000547 5.9994528c3.313817 0 5.999453-2.6856361 5.999453-5.9994528" fill="#bcbec0" mask="url(#d)"/><path d="m748 15c0-3.3141189-2.685636-6-5.999453-6-3.314911 0-6.000547 2.6858811-6.000547 6s2.685636 6 6.000547 6c3.313817 0 5.999453-2.6858811 5.999453-6" fill="#bcbec0" mask="url(#d)"/><path d="m675 129.999453c0-3.313817-2.686486-5.999453-5.998906-5.999453-3.314608 0-6.001094 2.685636-6.001094 5.999453 0 3.313816 2.686486 6.000547 6.001094 6.000547 3.31242 0 5.998906-2.686731 5.998906-6.000547" fill="#bcbec0" mask="url(#d)"/><path d="m607 152c0-3.314119-2.686731-6-5.999453-6-3.314911 0-6.000547 2.685881-6.000547 6s2.685636 6 6.000547 6c3.312722 0 5.999453-2.685881 5.999453-6" fill="#bcbec0" mask="url(#d)"/><path d="m583 139.000547c0-3.313816-2.685636-6.000547-5.999453-6.000547-3.313816 0-6.000547 2.686731-6.000547 6.000547 0 3.313817 2.686731 5.999453 6.000547 5.999453 3.313817 0 5.999453-2.685636 5.999453-5.999453" fill="#bcbec0" mask="url(#d)"/><path d="m616 88.9994528c0-3.3138167-2.685636-5.9994528-5.999453-5.9994528-3.314911 0-6.000547 2.6856361-6.000547 5.9994528s2.685636 6.0005472 6.000547 6.0005472c3.313817 0 5.999453-2.6867305 5.999453-6.0005472" fill="#bcbec0" mask="url(#d)"/><path d="m529 110c0-3.314119-2.686731-6-5.999453-6-3.313816 0-6.000547 2.685881-6.000547 6s2.686731 6 6.000547 6c3.312722 0 5.999453-2.685881 5.999453-6" fill="#bcbec0" mask="url(#d)"/><path d="m444 8.9994528c0-3.31381669-2.686731-5.9994528-5.999453-5.9994528-3.314911 0-6.000547 2.68563611-6.000547 5.9994528 0 3.3138167 2.685636 6.0005472 6.000547 6.0005472 3.312722 0 5.999453-2.6867305 5.999453-6.0005472" fill="#bcbec0" mask="url(#d)"/><path d="m138 9c0-3.31411893-2.686731-6-6.000547-6-3.313817 0-5.999453 2.68588107-5.999453 6 0 3.3141189 2.685636 6 5.999453 6 3.313816 0 6.000547-2.6858811 6.000547-6" fill="#bcbec0" mask="url(#d)"/><path d="m226 164.999453c0-3.313817-2.686731-5.999453-5.999453-5.999453-3.313816 0-6.000547 2.685636-6.000547 5.999453 0 3.313816 2.686731 6.000547 6.000547 6.000547 3.312722 0 5.999453-2.686731 5.999453-6.000547" fill="#bcbec0" mask="url(#d)"/></g></g></g></svg>