<svg id="Layer_1" data-name="Layer 1" xmlns="http://www.w3.org/2000/svg" viewBox="0 0 75 75"><defs><style>.cls-1{fill:#eea200;fill-rule:evenodd;}</style></defs><title>call</title><g id="Page-1"><g id="LP-Form"><g id="Features-Bar"><path id="Fill-1" class="cls-1" d="M47.24,52.29l-2.33,1.5a4.19,4.19,0,0,1-2.35.65c-4.62,0-11.29-6-14-12.64-2.28-5.59-2.32-12.94-.1-17.1a5.2,5.2,0,0,1,3.39-2.9l2.72-.56.21,0c.72,0,1.46.75,2,2,.92,2.25.92,5.46,0,6.87a1.13,1.13,0,0,1-.58.51l-2.66.84-.14.18c-1.48,2-1.6,5.16-.3,8.33s3.65,5.39,6.07,5.76l.24,0,2.45-1.27a1.21,1.21,0,0,1,.77,0c1.82.41,4,2.91,4.81,4.91.56,1.39.49,2.51-.18,2.94M55.2,20a25,25,0,0,0-35.32,0,25.17,25.17,0,0,0-4.44,29.29l.12.23L12.5,62.74l13.17-3.06.24.12A25,25,0,0,0,55.2,20"/></g></g></g></svg>