<svg id="Layer_1" data-name="Layer 1" xmlns="http://www.w3.org/2000/svg" viewBox="0 0 75 75"><defs><style>.cls-1{fill:#eea200;fill-rule:evenodd;}</style></defs><title>call</title><g id="Page-1"><g id="LP-Form"><g id="Features-Bar"><path id="Combined-Shape" class="cls-1" d="M53.16,55.07a20.8,20.8,0,0,0,5.22-12.66H56.69a.75.75,0,0,1-.74-.75v-1a.74.74,0,0,1,.74-.74h1.68A20.81,20.81,0,0,0,53.11,27.3L52,28.47a.74.74,0,0,1-1.05,0l-.7-.7a.74.74,0,0,1,0-1.05l1.16-1.17a20.82,20.82,0,0,0-12.62-5.21V22a.75.75,0,0,1-.75.75H37a.75.75,0,0,1-.75-.75V20.34a20.82,20.82,0,0,0-12.62,5.21l1.16,1.17a.74.74,0,0,1,0,1.05l-.7.7a.74.74,0,0,1-1.05,0L21.88,27.3a20.86,20.86,0,0,0-5.25,12.63H18.3a.74.74,0,0,1,.75.74v1a.75.75,0,0,1-.75.75H16.62a20.8,20.8,0,0,0,5.22,12.66l1.21-1.21a.74.74,0,0,1,1.05,0l.7.7a.75.75,0,0,1,0,1.06l-1.21,1.21a20.81,20.81,0,0,0,12.67,5.26V60.36a.74.74,0,0,1,.75-.74h1a.74.74,0,0,1,.75.74v1.73a20.86,20.86,0,0,0,12.67-5.26L50.2,55.62a.75.75,0,0,1,0-1.06l.7-.7a.74.74,0,0,1,1.05,0Zm3.69-29.69a25,25,0,1,1-22.52-9V13.55H31V8.79H44v4.76H40.67v2.87a24.85,24.85,0,0,1,13.54,6.2L56,20.85l-1.6-1.6,2-2.05L62,22.76l-1,1h0l-1,1-1.26-1.26ZM37.6,35.7V24.82a16.14,16.14,0,0,1,11.45,4.74l-7.69,7.7A5.28,5.28,0,0,0,37.6,35.7Zm0,1.77A3.54,3.54,0,1,1,34.07,41,3.55,3.55,0,0,1,37.6,37.47Z"/></g></g></g></svg>