<svg id="Layer_1" data-name="Layer 1" xmlns="http://www.w3.org/2000/svg" viewBox="0 0 75 75"><defs><style>.cls-1{fill:#eea200;fill-rule:evenodd;}</style></defs><title>call</title><g id="Page-1"><g id="LP-Form"><g id="Features-Bar"><path id="Combined-Shape" class="cls-1" d="M20.26,16.73,34.45,30.88l-2.84,2.84L17.42,19.57l-2.24-1.35-.75-4.33,4.48.61ZM30.92,49.37a9.43,9.43,0,0,1-9,12.36,9.49,9.49,0,0,1-2.25-.27l-1.23-.3L24.61,55,22.7,51.54l-3.48-1.9-6.14,6.14-.3-1.24a9.43,9.43,0,0,1,9.16-11.68,9.47,9.47,0,0,1,2.94.47l.12,0L42.61,25.76l0-.13a9.45,9.45,0,0,1,9-12.37,10,10,0,0,1,2.25.27l1.23.31L48.89,20l1.9,3.49,3.48,1.9,6.14-6.14.3,1.24a9.43,9.43,0,0,1-9.16,11.68,9.47,9.47,0,0,1-2.94-.47l-.12,0L30.88,49.24ZM49,38,62,51c.43.43.8,1.27.15,2.85-1.23,3-6,7.87-9.08,7.87a1.79,1.79,0,0,1-1.32-.47l-13-13-1.29-2.61L41.19,42,54.8,55.57,56.41,54,42.8,40.36l3.61-3.61Z"/></g></g></g></svg>