<svg id="Layer_1" data-name="Layer 1" xmlns="http://www.w3.org/2000/svg" viewBox="0 0 75 75"><defs><style>.cls-1{fill:#eea200;fill-rule:evenodd;}</style></defs><title>call</title><g id="Page-1"><g id="LP-Form"><g id="Features-Bar"><path id="Combined-Shape" class="cls-1" d="M60,47.42A5.57,5.57,0,1,1,54.22,53,5.68,5.68,0,0,1,60,47.42Zm-38.61,0A5.57,5.57,0,1,1,15.61,53,5.68,5.68,0,0,1,21.39,47.42ZM52.31,25.75,48.17,46h0l-1.45,7H29.43a8,8,0,0,0-16.07,0H5.85l7.49-36.55H54.22ZM9.59,23.34,8.63,28H0l1-4.68ZM1,41.17h5L5,45.85H0Zm6.8-8.91-1,4.68H0l1-4.68Zm61.85,6.06.73.2-.29-.7-1.53-3.74-.62-1.51-.42-1-1.28-3.12h-9.3l-.59,3.3L56,33.81c-.07.37-.13.74-.13.74l.72.2h0Zm4.76,3.59L75,43.4l-.31,1.47L73.3,51.52C73.22,51.91,73,53,73,53H68A8,8,0,0,0,52,53H49l.26-1.27a.68.68,0,0,1,0-.2L54.15,26.9h0l.29-1.47h13.1l.93,2.23Z"/></g></g></g></svg>